<svg xmlns="http://www.w3.org/2000/svg" width="1494" height="1494" fill="none"><rect width="1494" height="1494" fill="url(#a)" rx="747" style="fill:url(#a)"/><path fill="url(#b)" d="M737.36 481.935c303.62 0 371.09-77.109 428.92-197.593 0 202.413-9.64 433.742-371.09 433.742-300.73 0-404.83 67.471-457.84 173.497 0-240.968 38.56-409.646 400.01-409.646z" style="fill:url(#b)"/><path fill="url(#c)" d="M737.36 766.278c303.62 0 371.09-77.11 428.92-197.594 0 202.413 0 433.746-371.09 433.746-300.73 0-404.83 67.47-457.84 173.49 0-240.965 38.56-409.642 400.01-409.642z" style="fill:url(#c)"/><path fill="url(#d)" d="M535.29 324.609c-18.82-18.821-18.82-49.335 0-68.156l102.23-102.234 102.23 102.234c18.82 18.821 18.82 49.335 0 68.156L637.52 426.843Z" style="fill:url(#d)"/><path fill="url(#e)" d="M766.62 324.609c-18.83-18.821-18.83-49.335 0-68.156l102.23-102.234 102.23 102.234c18.82 18.821 18.82 49.335 0 68.156L868.85 426.843Z" style="fill:url(#e)"/><path fill="url(#f)" d="M535.29 1227.95c-18.82-18.82-18.82-49.34 0-68.16l102.23-102.23 102.23 102.23c18.82 18.82 18.82 49.34 0 68.16l-102.23 102.23z" style="fill:url(#f)"/><path fill="url(#g)" d="M766.62 1227.95c-18.83-18.82-18.83-49.34 0-68.16l102.23-102.23 102.23 102.23c18.82 18.82 18.82 49.34 0 68.16l-102.23 102.23z" style="fill:url(#g)"/><defs><linearGradient id="a" x1="1831.35" x2="2920.53" y1="-86.748" y2="1344.6" gradientTransform="translate(-1754.25)" gradientUnits="userSpaceOnUse"><stop stop-color="#FFF57B"/><stop offset=".18" stop-color="#FFE469"/><stop offset=".477" stop-color="#FECC51"/><stop offset=".721" stop-color="#FCB033"/><stop offset=".913" stop-color="#FA961B"/><stop offset="1" stop-color="#FAA607"/></linearGradient><linearGradient id="b" x1="2453.05" x2="2545.74" y1="376.42" y2="705.504" gradientTransform="translate(-1754.25)" gradientUnits="userSpaceOnUse"><stop/><stop offset="1" stop-color="#423F3F"/></linearGradient><linearGradient id="c" x1="2453.05" x2="2545.74" y1="660.762" y2="989.846" gradientTransform="translate(-1754.25)" gradientUnits="userSpaceOnUse"><stop/><stop offset="1" stop-color="#423F3F"/></linearGradient><linearGradient id="d" x1="2335.57" x2="2431.74" y1="251.762" y2="294.518" gradientTransform="translate(-1754.25)" gradientUnits="userSpaceOnUse"><stop/><stop offset="1" stop-color="#423F3F"/></linearGradient><linearGradient id="e" x1="2566.89" x2="2663.07" y1="251.762" y2="294.518" gradientTransform="translate(-1754.25)" gradientUnits="userSpaceOnUse"><stop/><stop offset="1" stop-color="#423F3F"/></linearGradient><linearGradient id="f" x1="2335.57" x2="2431.74" y1="1155.1" y2="1197.86" gradientTransform="translate(-1754.25)" gradientUnits="userSpaceOnUse"><stop/><stop offset="1" stop-color="#423F3F"/></linearGradient><linearGradient id="g" x1="2566.9" x2="2663.07" y1="1155.1" y2="1197.86" gradientTransform="translate(-1754.25)" gradientUnits="userSpaceOnUse"><stop/><stop offset="1" stop-color="#423F3F"/></linearGradient></defs></svg>