<svg viewBox="0 0 2110 306" fill="none" xmlns="http://www.w3.org/2000/svg">
<path d="M0.405426 82.9384V21.6012H244.111V82.9384H159.773V302H84.7441V82.9384H0.405426ZM303.84 305.286C290.422 305.286 278.557 303.095 268.242 298.714C258.02 294.242 249.987 287.487 244.146 278.451C238.304 269.415 235.383 257.914 235.383 243.949C235.383 232.448 237.346 222.636 241.27 214.512C245.195 206.297 250.672 199.589 257.7 194.386C264.728 189.183 272.898 185.213 282.208 182.475C291.609 179.736 301.741 177.956 312.602 177.135C324.377 176.222 333.824 175.127 340.944 173.849C348.154 172.48 353.357 170.609 356.552 168.236C359.746 165.771 361.344 162.531 361.344 158.515V157.967C361.344 152.49 359.244 148.292 355.046 145.371C350.847 142.45 345.462 140.99 338.89 140.99C331.679 140.99 325.792 142.587 321.228 145.782C316.755 148.885 314.063 153.677 313.15 160.158H243.598C244.511 147.379 248.573 135.604 255.783 124.834C263.085 113.972 273.719 105.301 287.684 98.8204C301.649 92.2485 319.083 88.9626 339.985 88.9626C355.046 88.9626 368.554 90.7425 380.512 94.3022C392.469 97.7707 402.646 102.654 411.043 108.952C419.441 115.159 425.83 122.461 430.211 130.858C434.684 139.164 436.92 148.201 436.92 157.967V302H366.273V272.427H364.63C360.431 280.276 355.319 286.62 349.295 291.458C343.362 296.295 336.562 299.809 328.895 302C321.319 304.191 312.968 305.286 303.84 305.286ZM328.484 257.64C334.235 257.64 339.62 256.453 344.64 254.08C349.752 251.707 353.905 248.284 357.099 243.812C360.294 239.339 361.891 233.908 361.891 227.519V209.994C359.883 210.816 357.738 211.591 355.456 212.322C353.266 213.052 350.893 213.736 348.337 214.375C345.872 215.014 343.225 215.608 340.396 216.155C337.658 216.703 334.782 217.205 331.77 217.661C325.929 218.574 321.137 220.08 317.394 222.179C313.743 224.187 311.005 226.698 309.18 229.71C307.445 232.63 306.578 235.916 306.578 239.567C306.578 245.409 308.632 249.882 312.739 252.985C316.847 256.088 322.095 257.64 328.484 257.64ZM665.257 160.158H595.705C595.34 155.868 593.834 152.171 591.187 149.068C588.54 145.964 585.117 143.591 580.919 141.948C576.811 140.214 572.247 139.347 567.227 139.347C560.747 139.347 555.179 140.533 550.524 142.907C545.869 145.28 543.587 148.657 543.678 153.038C543.587 156.141 544.91 159.017 547.649 161.664C550.478 164.311 555.909 166.364 563.941 167.825L606.658 175.492C628.199 179.417 644.218 186.034 654.715 195.344C665.303 204.563 670.643 216.931 670.734 232.448C670.643 247.417 666.17 260.424 657.316 271.468C648.554 282.421 636.551 290.91 621.308 296.934C606.156 302.867 588.86 305.834 569.418 305.834C537.289 305.834 512.142 299.262 493.979 286.118C475.906 272.974 465.82 255.632 463.721 234.091H538.749C539.753 240.754 543.039 245.911 548.607 249.562C554.266 253.122 561.386 254.902 569.966 254.902C576.903 254.902 582.607 253.715 587.08 251.342C591.644 248.969 593.971 245.592 594.062 241.21C593.971 237.194 591.963 234 588.038 231.626C584.205 229.253 578.18 227.337 569.966 225.876L532.725 219.304C511.275 215.562 495.211 208.442 484.532 197.946C473.852 187.449 468.558 173.94 468.65 157.419C468.558 142.815 472.392 130.447 480.15 120.316C488 110.093 499.181 102.334 513.694 97.0405C528.298 91.6552 545.595 88.9626 565.584 88.9626C595.979 88.9626 619.939 95.2606 637.464 107.857C655.08 120.453 664.345 137.886 665.257 160.158ZM699.691 302V91.7009H771.434V131.68H773.624C778.006 118.536 785.49 108.13 796.078 100.463C806.666 92.7962 819.262 88.9626 833.866 88.9626C848.653 88.9626 861.386 92.8875 872.065 100.737C882.744 108.496 889.179 118.81 891.37 131.68H893.561C897.12 118.81 904.696 108.496 916.288 100.737C927.88 92.8875 941.48 88.9626 957.088 88.9626C977.26 88.9626 993.599 95.4432 1006.1 108.404C1018.7 121.365 1025 138.617 1025 160.158V302H949.421V179.326C949.421 170.107 947.094 162.896 942.439 157.693C937.784 152.399 931.531 149.752 923.682 149.752C915.923 149.752 909.762 152.399 905.198 157.693C900.726 162.896 898.489 170.107 898.489 179.326V302H826.199V179.326C826.199 170.107 823.872 162.896 819.217 157.693C814.562 152.399 808.309 149.752 800.459 149.752C795.257 149.752 790.784 150.939 787.042 153.312C783.3 155.685 780.379 159.108 778.279 163.58C776.271 167.962 775.267 173.21 775.267 179.326V302H699.691ZM1062.27 302V91.7009H1137.85V302H1062.27ZM1100.06 69.7947C1089.84 69.7947 1081.08 66.4175 1073.77 59.6631C1066.47 52.9087 1062.82 44.7852 1062.82 35.2925C1062.82 25.7998 1066.47 17.6763 1073.77 10.9219C1081.08 4.16751 1089.84 0.790312 1100.06 0.790312C1110.37 0.790312 1119.14 4.16751 1126.35 10.9219C1133.65 17.6763 1137.3 25.7998 1137.3 35.2925C1137.3 44.7852 1133.65 52.9087 1126.35 59.6631C1119.14 66.4175 1110.37 69.7947 1100.06 69.7947ZM1176.36 302V91.7009H1248.1V131.68H1250.29C1254.67 118.536 1262.15 108.13 1272.74 100.463C1283.33 92.7962 1295.93 88.9626 1310.53 88.9626C1325.32 88.9626 1338.05 92.8875 1348.73 100.737C1359.41 108.496 1365.84 118.81 1368.03 131.68H1370.22C1373.78 118.81 1381.36 108.496 1392.95 100.737C1404.54 92.8875 1418.14 88.9626 1433.75 88.9626C1453.92 88.9626 1470.26 95.4432 1482.77 108.404C1495.36 121.365 1501.66 138.617 1501.66 160.158V302H1426.09V179.326C1426.09 170.107 1423.76 162.896 1419.1 157.693C1414.45 152.399 1408.2 149.752 1400.35 149.752C1392.59 149.752 1386.43 152.399 1381.86 157.693C1377.39 162.896 1375.15 170.107 1375.15 179.326V302H1302.86V179.326C1302.86 170.107 1300.54 162.896 1295.88 157.693C1291.23 152.399 1284.97 149.752 1277.12 149.752C1271.92 149.752 1267.45 150.939 1263.71 153.312C1259.96 155.685 1257.04 159.108 1254.94 163.58C1252.94 167.962 1251.93 173.21 1251.93 179.326V302H1176.36ZM1481.16 21.6012H1566.05L1620.81 135.513H1623L1677.77 21.6012H1762.65L1659.69 213.828V302H1584.12V213.828L1481.16 21.6012ZM1797.84 305.286C1784.42 305.286 1772.56 303.095 1762.24 298.714C1752.02 294.242 1743.99 287.487 1738.15 278.451C1732.3 269.415 1729.38 257.914 1729.38 243.949C1729.38 232.448 1731.35 222.636 1735.27 214.512C1739.2 206.297 1744.67 199.589 1751.7 194.386C1758.73 189.183 1766.9 185.213 1776.21 182.475C1785.61 179.736 1795.74 177.956 1806.6 177.135C1818.38 176.222 1827.82 175.127 1834.94 173.849C1842.15 172.48 1847.36 170.609 1850.55 168.236C1853.75 165.771 1855.34 162.531 1855.34 158.515V157.967C1855.34 152.49 1853.24 148.292 1849.05 145.371C1844.85 142.45 1839.46 140.99 1832.89 140.99C1825.68 140.99 1819.79 142.587 1815.23 145.782C1810.76 148.885 1808.06 153.677 1807.15 160.158H1737.6C1738.51 147.379 1742.57 135.604 1749.78 124.834C1757.09 113.972 1767.72 105.301 1781.68 98.8204C1795.65 92.2485 1813.08 88.9626 1833.99 88.9626C1849.05 88.9626 1862.55 90.7425 1874.51 94.3022C1886.47 97.7707 1896.65 102.654 1905.04 108.952C1913.44 115.159 1919.83 122.461 1924.21 130.858C1928.68 139.164 1930.92 148.201 1930.92 157.967V302H1860.27V272.427H1858.63C1854.43 280.276 1849.32 286.62 1843.3 291.458C1837.36 296.295 1830.56 299.809 1822.9 302C1815.32 304.191 1806.97 305.286 1797.84 305.286ZM1822.48 257.64C1828.23 257.64 1833.62 256.453 1838.64 254.08C1843.75 251.707 1847.9 248.284 1851.1 243.812C1854.29 239.339 1855.89 233.908 1855.89 227.519V209.994C1853.88 210.816 1851.74 211.591 1849.46 212.322C1847.27 213.052 1844.89 213.736 1842.34 214.375C1839.87 215.014 1837.23 215.608 1834.4 216.155C1831.66 216.703 1828.78 217.205 1825.77 217.661C1819.93 218.574 1815.14 220.08 1811.39 222.179C1807.74 224.187 1805.01 226.698 1803.18 229.71C1801.45 232.63 1800.58 235.916 1800.58 239.567C1800.58 245.409 1802.63 249.882 1806.74 252.985C1810.85 256.088 1816.1 257.64 1822.48 257.64ZM1967.03 302V91.7009H2040.42V131.68H2042.61C2046.44 116.893 2052.51 106.077 2060.82 99.2311C2069.21 92.3854 2079.03 88.9626 2090.25 88.9626C2093.54 88.9626 2096.78 89.2364 2099.97 89.7841C2103.26 90.2405 2106.41 90.925 2109.42 91.8378V156.324C2105.68 155.046 2101.07 154.088 2095.59 153.449C2090.12 152.81 2085.42 152.49 2081.49 152.49C2074.1 152.49 2067.43 154.179 2061.5 157.556C2055.66 160.842 2051.05 165.497 2047.67 171.521C2044.3 177.454 2042.61 184.437 2042.61 192.469V302H1967.03Z" fill="currentColor"/>
</svg>
